<svg xmlns="http://www.w3.org/2000/svg" width="19.134" height="12.24" viewBox="0 0 19.134 12.24">
  <g id="Groupe_49" data-name="Groupe 49" transform="translate(-467.616 -608.732)">
    <g id="Tracé_17" data-name="Tracé 17" transform="matrix(0.695, 0.719, -0.719, 0.695, 470.22, 609.016)" fill="#fff">
      <path d="M 1.189562201499939 3.058749198913574 C 0.986082136631012 3.058749198913574 0.7972221374511719 2.979979276657104 0.6577821373939514 2.83695912361145 C 0.5093021392822266 2.684659242630005 0.4306921362876892 2.475959062576294 0.4364421367645264 2.249299287796021 L 0.4593821465969086 1.344689130783081 C 0.4717221558094025 0.8581191897392273 0.8621121644973755 0.4521291851997375 1.329632163047791 0.4396691918373108 L 11.908522605896 0.1576791852712631 C 11.91576194763184 0.1574891805648804 11.92300224304199 0.1573891788721085 11.93019199371338 0.1573891788721085 C 12.13367176055908 0.1573891788721085 12.32252216339111 0.2361591756343842 12.46196174621582 0.3791791796684265 C 12.61044216156006 0.5314791798591614 12.68905258178711 0.740179181098938 12.68330192565918 0.9668391942977905 L 12.66036224365234 1.87144923210144 C 12.64802169799805 2.358019113540649 12.2576322555542 2.764009237289429 11.79011249542236 2.776469230651855 L 1.21123218536377 3.058459281921387 C 1.203992128372192 3.058649063110352 1.196752190589905 3.058749198913574 1.189562201499939 3.058749198913574 Z" stroke="none"/>
      <path d="M 11.93018245697021 0.6573891639709473 L 11.92184257507324 0.6574990749359131 L 1.342951774597168 0.9394991397857666 C 1.144042015075684 0.9447991847991943 0.9647321701049805 1.140059232711792 0.9592218399047852 1.357359170913696 L 0.9362821578979492 2.261979103088379 C 0.9339818954467773 2.352729320526123 0.9622125625610352 2.432969093322754 1.015782356262207 2.487919092178345 C 1.061602592468262 2.534919261932373 1.120072364807129 2.558749198913574 1.189552307128906 2.558749198913574 L 1.197892189025879 2.558639049530029 L 11.77679252624512 2.276639223098755 C 11.9757022857666 2.271339178085327 12.1550121307373 2.076079130172729 12.1605224609375 1.858779191970825 L 12.18346214294434 0.9541592597961426 C 12.18576240539551 0.8634092807769775 12.15753173828125 0.7831692695617676 12.10396194458008 0.7282192707061768 C 12.05813217163086 0.6812191009521484 11.99967193603516 0.6573891639709473 11.93018245697021 0.6573891639709473 M 11.93017768859863 -0.3426077365875244 C 12.64387130737305 -0.3426077365875244 13.20184803009033 0.242103099822998 13.18314170837402 0.9795191287994385 L 13.16020202636719 1.884129166603088 C 13.14119243621826 2.633539199829102 12.53375244140625 3.256829261779785 11.80343246459961 3.276289224624634 L 1.224542617797852 3.558279275894165 C 1.212863922119141 3.558590412139893 1.201154708862305 3.558746099472046 1.189557075500488 3.558746099472046 C 0.4758634567260742 3.558746099472046 -0.08210372924804688 2.974035263061523 -0.06339740753173828 2.236619234085083 L -0.04045772552490234 1.332009196281433 C -0.02145767211914062 0.5825991630554199 0.5859918594360352 -0.04069089889526367 1.316311836242676 -0.0601508617401123 L 11.89519214630127 -0.3421409130096436 C 11.90687084197998 -0.3424520492553711 11.9185791015625 -0.3426077365875244 11.93017768859863 -0.3426077365875244 Z" stroke="none" fill="#fff"/>
    </g>
    <g id="Tracé_18" data-name="Tracé 18" transform="matrix(-0.695, 0.719, -0.719, -0.695, 486.802, 611.414)" fill="#fff">
      <path d="M 12.06613349914551 3.329355239868164 C 12.05875301361084 3.329355239868164 12.05139350891113 3.329265356063843 12.04396343231201 3.329075336456299 L 1.434553146362305 3.05499529838562 C 0.9649531245231628 3.04286527633667 0.5729831457138062 2.654215335845947 0.5608031153678894 2.188625335693359 L 0.5377931594848633 1.30948531627655 C 0.5323231220245361 1.100665330886841 0.6064331531524658 0.9064953327178955 0.7464531660079956 0.7627653479576111 C 0.8879531621932983 0.6175053119659424 1.082603096961975 0.5375153422355652 1.294533133506775 0.5375153422355652 C 1.301913142204285 0.5375153422355652 1.30927312374115 0.537605345249176 1.316703081130981 0.5377953052520752 L 11.92611312866211 0.8118753433227539 C 12.39571285247803 0.8240053057670593 12.78768348693848 1.212655305862427 12.7998628616333 1.678245306015015 L 12.82287311553955 2.557385206222534 C 12.82834339141846 2.766205310821533 12.75423336029053 2.960375308990479 12.61421298980713 3.104105234146118 C 12.47271347045898 3.249365329742432 12.27806282043457 3.329355239868164 12.06613349914551 3.329355239868164 Z" stroke="none"/>
      <path d="M 1.294532775878906 1.03751540184021 C 1.197253227233887 1.03751540184021 1.137553215026855 1.077835321426392 1.104602813720703 1.11166524887085 C 1.07269287109375 1.144415378570557 1.035182952880859 1.203055381774902 1.037623405456543 1.29640531539917 L 1.060632705688477 2.175545215606689 C 1.065783500671387 2.372575283050537 1.246553421020508 2.549965381622314 1.447473526000977 2.555155277252197 L 12.05655288696289 2.829235315322876 L 12.06613349914551 2.829355239868164 C 12.16341304779053 2.829355239868164 12.22311305999756 2.789035320281982 12.25606346130371 2.755205154418945 C 12.28797340393066 2.722455263137817 12.32548332214355 2.663815498352051 12.32304286956787 2.570465326309204 L 12.30003356933594 1.691325426101685 C 12.29488277435303 1.494295358657837 12.11411285400391 1.31690526008606 11.91319274902344 1.311715364456177 L 1.304113388061523 1.037635326385498 L 1.294532775878906 1.03751540184021 M 1.294533729553223 0.03751158714294434 C 1.306209564208984 0.03751158714294434 1.317855834960938 0.03766155242919922 1.329612731933594 0.03796529769897461 L 11.9390230178833 0.3120453357696533 C 12.67144298553467 0.3309652805328369 13.28063297271729 0.9367752075195312 13.29969310760498 1.665165424346924 L 13.32270336151123 2.544305324554443 C 13.34145736694336 3.261003017425537 12.78181457519531 3.82935905456543 12.06613254547119 3.82935905456543 C 12.05445671081543 3.82935905456543 12.04281044006348 3.829209089279175 12.03105354309082 3.828905344009399 L 1.421643257141113 3.554825305938721 C 0.6892232894897461 3.535905361175537 0.08003330230712891 2.930095195770264 0.06097316741943359 2.201705455780029 L 0.03796291351318359 1.322565317153931 C 0.01920890808105469 0.6058676242828369 0.5788516998291016 0.03751158714294434 1.294533729553223 0.03751158714294434 Z" stroke="none" fill="#fff"/>
    </g>
  </g>
</svg>
