<?xml version="1.0" encoding="UTF-8" standalone="no"?><!DOCTYPE svg PUBLIC "-//W3C//DTD SVG 1.1//EN" "http://www.w3.org/Graphics/SVG/1.1/DTD/svg11.dtd"><svg width="100%" height="100%" viewBox="0 0 1031 730" version="1.1" xmlns="http://www.w3.org/2000/svg" xmlns:xlink="http://www.w3.org/1999/xlink" xml:space="preserve" xmlns:serif="http://www.serif.com/" style="fill-rule:evenodd;clip-rule:evenodd;stroke-miterlimit:10;"><ellipse cx="814.66" cy="585.22" rx="211.36" ry="41.08" style="fill:#293462;fill-opacity:0.1;"/><g><g opacity="0.5"><path d="M633.62,103.56c-2.85,0.81 -6.34,2.92 -8.06,8.69c-3.37,11.31 4.46,19 1.88,30.79c-0.716,3.127 -2.079,6.071 -4,8.64c-3.15,4.27 -6.57,6.29 -9.89,9.28c-4.211,3.819 -7.229,8.776 -8.69,14.27c-1.601,6.064 -1.735,12.424 -0.39,18.55c1.18,5.12 3.19,8.85 4.95,13c2.188,5.293 3.898,10.772 5.11,16.37c0.665,2.726 1.04,5.515 1.12,8.32c-0.05,3.727 -0.384,7.444 -1,11.12l-4.79,33.42c-0.728,4.37 -1.165,8.783 -1.31,13.21c0.063,4.437 0.575,8.856 1.53,13.19c1.68,8.84 3.49,18 7.34,22.68c3.85,4.68 10.41,3 14.44,-6.47c3.83,-9.06 3.92,-21.15 7.3,-30.83c5.33,-15.25 15.92,-17.3 21.8,-31.85c5.64,-14 3.91,-31.08 6.77,-47c2,-11.41 6.41,-21.81 9,-33.08c3.72,-16.23 3.35,-33.08 0.38,-45.56c-2.259,-10.253 -7.146,-19.745 -14.18,-27.54c-2.49,-2.75 -5.16,-5.2 -8.29,-5.45c-3.33,-0.26 -6.24,3.93 -9.53,5.19c-3.8,1.49 -7.62,-0.04 -11.49,1.06Z" style="fill:#293462;fill-rule:nonzero;"/><path d="M651.65,98.16c0,0 -5.64,144.34 -29.36,229.45" style="fill:none;stroke:#fff;stroke-opacity:0.239216;stroke-width:2px;"/><path d="M625.42,112.93c0,0 25.35,23.08 20.54,67" style="fill:none;stroke:#fff;stroke-opacity:0.239216;stroke-width:2px;"/><path d="M604.15,178.61c0,0 41.61,8.37 38.52,33.26" style="fill:none;stroke:#fff;stroke-opacity:0.239216;stroke-width:2px;"/><path d="M677.18,130c0,0 -16.84,14.74 -31.84,56.49" style="fill:none;stroke:#fff;stroke-opacity:0.239216;stroke-width:2px;"/><path d="M660.73,256.18c0,0 -11.49,9 -20.71,-22.51" style="fill:none;stroke:#535461;stroke-width:2px;"/><path d="M611.15,274.59c0,0 23.43,-3.06 25.59,-17.73" style="fill:none;stroke:#535461;stroke-width:2px;"/></g></g><path d="M690.26,6.75c-5.8,0.86 -12.78,3.55 -15.65,11.84c-5.63,16.26 11.48,28.57 7.54,45.56c-1.175,4.675 -3.651,8.923 -7.14,12.25c-6,5.91 -12.86,8.49 -19.36,12.5c-6.5,4.01 -13.25,10.32 -16.3,20c-2.93,9.31 -1.66,19.59 1.39,27.27c3.05,7.68 7.66,13.41 11.78,19.73c5.007,7.779 9.192,16.057 12.49,24.7c1.663,3.94 2.78,8.088 3.32,12.33c0.53,5.2 -0.14,10.79 -0.81,16.26l-5.95,48.74c-0.79,6.48 -1.59,13.06 -1.14,19.3c0.51,7.19 2.64,13.47 4.74,19.6c4.52,13.22 9.36,27 17.89,34.28c8.53,7.28 21.91,5.72 29.12,-7.82c6.86,-12.89 5.6,-30.68 11.45,-44.53c9.22,-21.83 30.9,-23.6 41.33,-44.32c10,-19.88 4.41,-45.31 8.43,-68.41c2.88,-16.55 10.68,-31.35 14.68,-47.64c5.77,-23.47 3,-48.32 -4.62,-67c-7.62,-18.68 -19.67,-32 -32.6,-42.23c-5.48,-4.35 -11.29,-8.28 -17.8,-9c-6.92,-0.77 -12.45,5.05 -19.1,6.52c-7.74,1.61 -15.82,-1.1 -23.69,0.07Z" style="fill:#293462;fill-rule:nonzero;"/><path d="M726.94,0.93c0,0 1.042,40.438 -1.038,96.199c-2.68,71.879 -10.548,169.219 -32.522,238.221" style="fill:none;stroke:#fff;stroke-opacity:0.290196;stroke-width:2px;"/><path d="M674.39,19.61c0,0 55.2,37 50.47,101.16" style="fill:none;stroke:#fff;stroke-opacity:0.290196;stroke-width:2px;"/><path d="M638.16,113.78c0,0 87.12,17.26 83.68,53.54" style="fill:none;stroke:#fff;stroke-opacity:0.290196;stroke-width:2px;"/><path d="M783.55,50.85c0,0 -33.11,19.71 -59.19,79.41" style="fill:none;stroke:#fff;stroke-opacity:0.290196;stroke-width:2px;"/><path d="M764.44,234.72c0,0 -22.7,12 -45.53,-35.61" style="fill:none;stroke:#535461;stroke-width:2px;"/><path d="M664.01,255.93c0,0 48.13,-1.73 50.87,-23.08" style="fill:none;stroke:#535461;stroke-width:2px;"/><path d="M10.08,645.49c0,0 23.43,-0.72 30.49,-5.75c7.06,-5.03 36,-11 37.79,-3c1.79,8 35.21,40.11 8.76,40.32c-26.45,0.21 -61.46,-4.12 -68.51,-8.41c-7.05,-4.29 -8.53,-23.16 -8.53,-23.16Z" style="fill:#a8a8a8;fill-rule:nonzero;"/><path d="M87.59,674.28c-26.45,0.21 -61.46,-4.12 -68.51,-8.41c-5.37,-3.27 -7.51,-15 -8.22,-20.41l-0.78,0c0,0 1.48,18.9 8.53,23.19c7.05,4.29 42.06,8.63 68.51,8.41c7.64,-0.06 10.27,-2.78 10.13,-6.8c-1.06,2.46 -3.97,3.98 -9.66,4.02Z" style="fill-opacity:0.2;fill-rule:nonzero;"/><path d="M982.36,574.04c1.833,-1.494 3.168,-3.51 3.83,-5.78c0.5,-2.3 -0.48,-5.05 -2.68,-5.89c-2.46,-0.94 -5.09,0.76 -7.08,2.49c-1.99,1.73 -4.28,3.69 -6.89,3.32c2.726,-2.471 3.958,-6.202 3.24,-9.81c-0.113,-0.736 -0.424,-1.427 -0.9,-2c-1.37,-1.46 -3.84,-0.83 -5.48,0.32c-5.2,3.66 -6.65,10.72 -6.68,17.08c-0.52,-2.29 -0.08,-4.68 -0.1,-7c-0.02,-2.32 -0.66,-5 -2.64,-6.22c-1.228,-0.66 -2.607,-0.987 -4,-0.95c-2.34,-0.09 -4.94,0.15 -6.54,1.86c-2,2.12 -1.47,5.69 0.26,8c1.73,2.31 4.35,3.8 6.77,5.42c1.939,1.153 3.594,2.729 4.84,4.61c0.147,0.261 0.267,0.536 0.36,0.82l14.65,0c3.282,-1.673 6.323,-3.782 9.04,-6.27Z" style="fill:#293462;fill-rule:nonzero;"/><path d="M146.73,480.32c31.82,40.46 19.46,99.57 -0.76,146.9c-6.77,15.85 -14.43,32.62 -11.57,49.61c3.49,20.78 22,36 41.52,44c35.5,14.68 78,11.18 110.61,-9.11c28.19,-17.54 48.38,-46.06 77.05,-62.8c48,-28 109.06,-17.43 161.16,1.86c36.86,13.65 77.16,31.41 113.79,17.14c25.77,-10 43.59,-34.47 53.3,-60.37c4.69,-12.51 8.09,-26 17,-36c5.32,-5.89 12.26,-10.08 19.38,-13.6c65,-32.21 147,-15 210.08,-50.68c42.61,-24.12 69.89,-69.63 82,-117.08c12.11,-47.45 10.67,-97.21 7.6,-146.07c-2.18,-34.73 -6.09,-71.8 -28.28,-98.61c-23.47,-28.35 -63.76,-38.9 -100.17,-33.51c-36.41,5.39 -69.43,24.69 -98.43,47.31c-36.29,28.27 -69.94,63.48 -114.5,74.94c-30.34,7.8 -62.26,3.53 -93.56,2.06c-52.32,-2.47 -104.65,3 -156.68,9c-49.81,5.76 -100,12.1 -147.43,28.3c-33.58,11.47 -60.5,32.28 -92.21,46.82c-20.67,9.48 -43.21,12.1 -62.77,24.17c-24.11,14.87 -46.2,40.74 -40,71c5.82,28.81 35.97,43.25 52.87,64.72Z" style="fill:#293462;fill-opacity:0.1;fill-rule:nonzero;"/><ellipse cx="552.35" cy="439.22" rx="427.67" ry="41.08" style="fill:#293462;fill-opacity:0.1;"/><ellipse cx="223.66" cy="676.016" rx="211.36" ry="41.08" style="fill:#293462;fill-opacity:0.1;"/><path d="M439.72,426.41l-3.35,4.87c0,0 3.65,4.87 4,5.48c0.35,0.61 10.65,-0.3 10.65,-0.3l0.91,-3.65l-1.52,-4.26l-10.69,-2.14Z" style="fill:#e6e6f0;fill-rule:nonzero;"/><path d="M327.09,423.67l-6.7,1.21l4.26,8.23l4.57,2.43l4.26,3.04l1.22,-3.34l-3.05,-6.4l-4.56,-5.17Z" style="fill:#fdc2cc;fill-rule:nonzero;"/><path d="M436.68,344.52c0,0 35.62,8.52 42.31,18c0,0 6.09,5.18 0,14.61c-6.09,9.43 -14.61,30.75 -14.61,30.75c0,0 -6.09,20.7 -8.52,22.22c-2.43,1.52 -16.44,2.74 -17.66,-3c0,0 7.91,-12.48 7.91,-18.27c0,-5.79 13.09,-33.18 13.09,-33.18c0,0 -29.83,-3.35 -39.27,-1.22c-9.44,2.13 4.27,-33.26 16.75,-29.91Z" style="fill:#5e5a6b;fill-rule:nonzero;"/><path d="M429.37,352.74c-0.07,1.77 -0.26,3.76 -0.53,5.9c-1.95,15.5 -8.3,38.55 -8.3,38.55c0,0 -6.39,13.7 -8.22,22.53c-1.83,8.83 -14.31,11 -14.31,11c0,0 -34.1,4 -41.1,2.44c-7,-1.56 -18,4.57 -23.44,3.65c-5.44,-0.92 -8.83,-13.7 -8.83,-13.7c9.441,0.055 18.786,-1.916 27.4,-5.78c14,-6.39 34.1,-3.35 34.1,-3.35c3.029,-0.88 5.563,-2.972 7,-5.78c2.13,-4.57 2.13,-32.27 1.52,-34.1c-4,-12 -3.67,-19.7 -2.52,-24.19c0.385,-1.961 1.251,-3.796 2.52,-5.34l34.71,8.17Z" style="fill:#5e5a6b;fill-rule:nonzero;"/><path d="M429.37,352.74c-0.07,1.77 -0.26,3.76 -0.53,5.9c-3.06,0.24 -11.64,0.47 -18,-3.46c-6,-3.68 -14.73,-4.93 -18.66,-5.32c0.385,-1.961 1.251,-3.796 2.52,-5.34l34.67,8.22Z" style="fill-opacity:0.1;fill-rule:nonzero;"/><path d="M433.58,348.93c-1.42,4 -3.6,8.69 -3.6,8.69c0,0 -11.26,1.52 -19.18,-3.35c-7.92,-4.87 -20.7,-5.48 -20.7,-5.48c2.07,-1.27 3.47,-5.13 4.34,-8.51c0.486,-1.911 0.866,-3.847 1.14,-5.8c0.274,-1.953 37.44,7.61 39,8.83c0.58,0.48 -0.04,2.9 -1,5.62Z" style="fill:#e6e6f0;fill-rule:nonzero;"/><path d="M500.3,220.62l-45.41,27.41l-4.51,2.72l0,-13.39l3.13,-1.5l38.27,-18.29c0,0 1.83,-33.18 6.7,-28c4.87,5.18 1.82,31.05 1.82,31.05Z" style="fill:#fdc2cc;fill-rule:nonzero;"/><path d="M454.89,248.03l-4.51,2.72l0,-13.39l3.13,-1.5c0.207,4.081 0.668,8.146 1.38,12.17Z" style="fill-opacity:0.1;fill-rule:nonzero;"/><path d="M419.94,252.93l32.57,-18.87c0,0 0.61,18.27 4.26,21c0,0 -13.39,4 -18.57,12.48l-18.26,-14.61Z" style="fill:#575389;fill-rule:nonzero;"/><path d="M500.01,269.02c0,0 -15.49,6.75 -25.75,9.23c-2.309,0.696 -4.723,0.974 -7.13,0.82c-7,-1.22 1.83,-10 1.83,-10l3.68,-0.57l19.76,-3.08c0,0 2.13,-30.44 5.78,-28c3.65,2.44 1.83,31.6 1.83,31.6Z" style="fill:#fdc2cc;fill-rule:nonzero;"/><path d="M434.55,241.62c0,0 -13.09,9.74 -8.22,21.92c4.87,12.18 -25.27,-7.31 -25.27,-7.31c0,0 9.74,-14.61 11.87,-25.57c2.13,-10.96 21.62,10.96 21.62,10.96Z" style="fill:#fdc2cc;fill-rule:nonzero;"/><path d="M433.58,348.93c-5.662,-2.132 -11.579,-3.511 -17.6,-4.1c-8.8,-1 -16.86,-2.69 -21.53,-4.55c0.486,-1.911 0.866,-3.847 1.14,-5.8c0.274,-1.953 37.44,7.61 39,8.83c0.57,0.48 -0.05,2.9 -1.01,5.62Z" style="fill-opacity:0.1;fill-rule:nonzero;"/><path d="M474.25,278.25c-2.309,0.696 -4.723,0.974 -7.13,0.82c-7,-1.22 1.83,-10 1.83,-10l3.68,-0.57c1.54,2.37 3.11,6.07 1.62,9.75Z" style="fill-opacity:0.1;fill-rule:nonzero;"/><path d="M413.24,247.1c0,0 -11.87,-0.3 -16.13,4.57c-4.26,4.87 -3.35,18 -3.35,18c0,0 -0.89,26.29 5.78,41c0.22,0.475 0.245,1.017 0.07,1.51c-0.07,0.18 -0.07,0.07 -0.07,0.07c0,0 -4.26,19.18 -8.52,22.53c-4.26,3.35 9.13,7.31 25,9.13c15.87,1.82 22.22,6.39 22.22,6.39c0,0 2.74,-3 3,-9.74c0.26,-6.74 -4.23,-55.71 -4.23,-55.71c0,0 16.74,4.26 26.79,-0.91c0,0 4.57,2.44 8.83,-4.26c4.26,-6.7 -3,-14 -3,-14c0,0 -6.7,6.7 -25.27,-2.13c-18.57,-8.83 -25.35,-16.75 -31.12,-16.45Z" style="fill:#575389;fill-rule:nonzero;"/><path d="M322.22,424.28l-3.65,0l0,5.18l3.65,8.22c0,0 4.87,0.91 5.18,0.91c0.31,0 4.26,-0.91 4.26,-0.91l1.22,-2.13c0,0 -13.4,-5.19 -10.66,-11.27Z" style="fill:#e6e6f0;fill-rule:nonzero;"/><path d="M436.68,429.15l-5.48,12.18l23.14,11l18.27,0.61c0,0 1.52,-4.26 -4.57,-6.39l-4.87,-0.91c0,0 -6.39,-11.57 -7,-17c0,0 -6.09,1.22 -7,5.78c-0.01,-0.1 -8.53,4.16 -12.49,-5.27Z" style="fill:#47465a;fill-rule:nonzero;"/><path d="M319.48,423.06l-1.86,1.52l-8.18,6.7l18.87,25c0,0 10.65,4.57 15.53,0c0,0 3,-3 -3.65,-5.48c0,0 -5.18,0.91 -5.18,-4.26c0,-5.17 1.22,-10.65 3,-11.87c0,0 -4.57,-1.52 -5.78,-0.3c-0.931,1.026 -1.749,2.149 -2.44,3.35c-0.691,1.201 -10.92,-4.31 -10.31,-14.66Z" style="fill:#b45181;fill-rule:nonzero;"/><path d="M412.33,231.27c-0.309,1.544 -0.717,3.068 -1.22,4.56c3.267,7.86 12.319,11.749 20.27,8.71c0.803,-0.828 1.661,-1.6 2.57,-2.31c0.909,-0.71 -19.49,-21.92 -21.62,-10.96Z" style="fill-opacity:0.1;fill-rule:nonzero;"/><path d="M410.65,271.93c0,0 9.44,12.48 23.14,12.79" style="fill-opacity:0.1;fill-rule:nonzero;"/><g><g opacity="0.1"><path d="M467.07,284.15c-0.192,-0.054 -0.38,-0.124 -0.56,-0.21c-0.293,0.153 -0.593,0.297 -0.9,0.43c0.494,-0.01 0.985,-0.084 1.46,-0.22Z" style="fill-rule:nonzero;"/><path d="M470.31,266.93c-0.331,-0.425 -0.685,-0.833 -1.06,-1.22c-0.375,-0.387 -2,2 -6.94,2.38c2.721,0.27 5.468,-0.128 8,-1.16Z" style="fill-rule:nonzero;"/><path d="M439.72,284.85l0.06,0.65c4.016,0.744 8.097,1.079 12.18,1c-4.124,-0.15 -8.223,-0.703 -12.24,-1.65Z" style="fill-rule:nonzero;"/><path d="M418.72,343.93c-15.83,-1.83 -29.22,-5.78 -25,-9.13c4.22,-3.35 8.52,-22.53 8.52,-22.53c0,0 0,0.11 0.07,-0.07c0.175,-0.493 0.15,-1.035 -0.07,-1.51c-6.67,-14.75 -5.78,-41 -5.78,-41c0,0 -0.91,-13.09 3.35,-18c3.17,-3.63 10.56,-4.38 14.13,-4.53c-0.333,-0.026 -0.667,-0.026 -1,0c-0.333,0.026 -11.87,-0.3 -16.13,4.57c-4.26,4.87 -3.35,18 -3.35,18c0,0 -0.89,26.29 5.78,41c0.22,0.475 0.245,1.017 0.07,1.51c-0.07,0.18 -0.07,0.07 -0.07,0.07c0,0 -4.23,19.12 -8.53,22.47c-4.3,3.35 9.13,7.31 25,9.13c15.87,1.82 22.22,6.39 22.22,6.39c0.319,-0.382 0.6,-0.794 0.84,-1.23c-3.09,-1.49 -9.45,-3.94 -20.05,-5.14Z" style="fill-rule:nonzero;"/></g></g><circle cx="426.33" cy="229.14" r="15.83" style="fill:#fdc2cc;"/><path d="M448.86,222.06c-1.31,3.28 -5.22,4.52 -8.65,5.37c-4.9,1.2 -10.18,2.38 -14.87,0.52c-0.608,-0.341 -1.309,-0.478 -2,-0.39c-0.557,0.223 -1.022,0.629 -1.32,1.15c-5.17,7.36 -4.33,17.17 -5.67,26.07c-0.42,2.77 -1.13,5.63 -3,7.7c-3.64,4 -10.51,3.85 -13.86,8.1c-2.21,2.8 -2.23,6.69 -2.21,10.26c0,3.807 -0.033,7.617 -0.1,11.43c-0.06,2.5 -0.18,5.09 -1.31,7.31c-1.92,3.76 -6.2,5.55 -10.15,7c-2.46,0.92 -5,1.85 -7.64,1.6c-2.64,-0.25 -5.28,-2 -5.62,-4.64c-0.47,-3.58 3.22,-6.08 5.76,-8.66c4.06,-4.11 5.73,-10.09 5.88,-15.87c0.143,-2.334 -0.198,-4.673 -1,-6.87c-0.93,-2.27 -2.59,-4.18 -3.59,-6.42c-3.08,-6.9 0.72,-14.88 5.27,-20.92c4.55,-6.04 10.14,-11.93 11.11,-19.42c0.085,-1.621 0.316,-3.231 0.69,-4.81c0.7,-2.18 2.36,-8.2 4.19,-9.58c2.929,-2.207 6.37,-3.638 10,-4.16c2.81,-0.41 5.68,-0.26 8.47,-0.8c3.26,-0.63 6.29,-2.18 9.55,-2.76c7.05,-1.25 14.7,6.94 17.79,13.4c0.85,1.98 3.08,3.38 2.28,5.39Z" style="fill-opacity:0.1;fill-rule:nonzero;"/><path d="M448.86,221.45c-1.31,3.28 -5.22,4.52 -8.65,5.37c-4.9,1.2 -10.18,2.38 -14.87,0.52c-0.608,-0.341 -1.309,-0.478 -2,-0.39c-0.557,0.223 -1.022,0.629 -1.32,1.15c-5.17,7.36 -4.33,17.17 -5.67,26.07c-0.42,2.77 -1.13,5.63 -3,7.7c-3.64,4 -10.51,3.85 -13.86,8.1c-2.21,2.8 -2.23,6.69 -2.21,10.26c0,3.807 -0.033,7.617 -0.1,11.43c-0.06,2.5 -0.18,5.09 -1.31,7.31c-1.92,3.76 -6.2,5.55 -10.15,7c-2.46,0.92 -5,1.85 -7.64,1.6c-2.64,-0.25 -5.28,-2 -5.62,-4.64c-0.47,-3.58 3.22,-6.08 5.76,-8.66c4.06,-4.11 5.73,-10.09 5.88,-15.87c0.143,-2.334 -0.198,-4.673 -1,-6.87c-0.93,-2.27 -2.59,-4.18 -3.59,-6.42c-3.08,-6.9 0.72,-14.88 5.27,-20.92c4.55,-6.04 10.14,-11.93 11.11,-19.42c0.085,-1.621 0.316,-3.231 0.69,-4.81c0.7,-2.18 2.36,-8.2 4.19,-9.58c2.929,-2.207 6.37,-3.638 10,-4.16c2.81,-0.41 5.68,-0.26 8.47,-0.8c3.26,-0.63 6.29,-2.18 9.55,-2.76c7.05,-1.25 14.7,6.94 17.79,13.4c0.85,1.98 3.08,3.38 2.28,5.39Z" style="fill:#8f6d6a;fill-rule:nonzero;"/><rect x="500.01" y="191.02" width="263.17" height="263.15" style="fill:#f7df1e;fill-rule:nonzero;"/><path d="M569.22,410.93l20.14,-12.19c3.89,6.89 7.42,12.72 15.9,12.72c8.13,0 13.25,-3.18 13.25,-15.54l0,-84.09l24.73,0l0,84.43c0,25.61 -15,37.27 -36.92,37.27c-19.78,0 -31.26,-10.25 -37.09,-22.61m87.44,-2.65l20.13,-11.66c5.3,8.66 12.19,15 24.38,15c10.25,0 16.78,-5.12 16.78,-12.19c0,-8.48 -6.71,-11.48 -18,-16.43l-6.18,-2.65c-17.84,-7.59 -29.68,-17.13 -29.68,-37.27c0,-18.55 14.13,-32.68 36.21,-32.68c15.72,0 27,5.48 35.15,19.78l-19.25,12.37c-4.24,-7.6 -8.83,-10.6 -15.9,-10.6c-7.24,0 -11.84,4.59 -11.84,10.6c0,7.42 4.59,10.42 15.19,15l6.18,2.65c21,9 32.86,18.19 32.86,38.86c0,22.26 -17.49,34.45 -41,34.45c-23,0 -37.8,-11 -45,-25.26" style="fill-rule:nonzero;"/><path d="M878.62,600.21c0,0 -10.27,0.72 -16.61,-10.28c-1.239,-2.215 -2.704,-4.296 -4.37,-6.21c-2.047,-3.356 -3.11,-7.22 -3.07,-11.15c0.35,-8.15 -8.15,-52.79 -8.15,-52.79c0,0 1.06,-17 -7.44,-27.63c-5.6,-7 -13.65,-27 -18.5,-39.92c0.325,0.29 0.717,0.496 1.14,0.6l-0.2,-1.11l0.2,0l-2.51,-13.79c-3.654,-4.201 -6.735,-8.868 -9.16,-13.88l0.57,-0.12l7.52,-1.58c0,0 12.22,-17.37 13,-25.91l2.41,0c11.311,-0.062 22.617,0.529 33.86,1.77c0,-0.05 -0.08,-0.27 -0.18,-0.62c-0.476,-1.719 -0.843,-3.465 -1.1,-5.23l0.7,0l7,-0.46c0,0 24.09,-26.92 15.23,-31.88c-8.86,-4.96 -18.07,22.32 -18.07,22.32l-3,0.54l-0.81,0.15c0.08,-0.12 0.16,-0.23 0.25,-0.34c0.09,-0.11 -39.32,-1.76 -45.39,-11.34c0,0 -17.36,-13.82 -18.07,-23c-0.26,-3.877 -2.674,-7.297 -6.24,-8.84c-2.145,-1.024 -4.52,-1.468 -6.89,-1.29l-8.13,0.56l0.57,1l-0.23,0c-0.51,-1.169 -0.938,-2.372 -1.28,-3.6l0.17,0c-0.06,-0.25 -0.11,-0.5 -0.16,-0.75c8.607,-2.03 14.739,-9.776 14.739,-18.619c0,-1.668 -0.218,-3.329 -0.649,-4.941c0.795,0.102 1.602,0.078 2.39,-0.07c3,-0.61 5.11,-3.65 5.19,-6.69c0,-0.2 0,-0.4 0,-0.59c0,0 0,-0.08 0,-0.12c-0.061,-3.092 -1.513,-5.997 -3.95,-7.9c-1.62,-1.35 -3.56,-2.31 -5,-3.81c-1.75,-1.79 -2.71,-4.19 -4.07,-6.3c-2.278,-3.49 -5.658,-6.12 -9.6,-7.47c-2.93,-1 -6.53,-1.1 -8.78,1c-1.16,1.09 -1.83,2.67 -3.13,3.59c-1.87,1.34 -4.41,0.94 -6.7,1.21c-4.207,0.647 -7.824,3.355 -9.63,7.21c-1.123,2.379 -1.664,4.991 -1.58,7.62c-0.025,1.804 0.19,3.603 0.64,5.35c0.44,1.74 1.09,3.42 1.57,5.16c1,3.6 1.23,7.39 2.38,10.94c0.773,2.635 2.316,4.979 4.43,6.73l-0.34,1.46c-0.22,0 -5.74,1.23 -9.55,9.56c-3,6.57 -13.21,13.35 -17.7,16.09c-1.691,1.035 -2.895,2.708 -3.34,4.64c-0.431,1.932 -0.623,3.911 -0.57,5.89c-0.08,4.27 0.81,10.18 4.24,17.67c7.79,17 13.46,24.44 13.46,24.44c0,0 0.43,5.21 0.46,10.7c0,4.09 -0.3,8.16 -1.17,10.2c-0.74,1.72 -1,6.11 -0.94,11.13c0,9.62 0.94,22.17 0.94,22.17c0,0 2.71,0.52 6.9,1.13l2.61,45.92c0.328,5.559 -1.459,11.042 -5,15.34c-1.831,2.261 -3.945,4.278 -6.29,6c-7.44,5.31 -23.38,61.29 -23.38,61.29c0,0 0.78,0 2.06,0.15l-4.9,13.67c0,0 19.58,15 31.49,10.9c1.29,-0.42 2.644,-0.61 4,-0.56c2.35,0 7.38,-1.86 4.58,-4.31c-5.407,-4.979 -10.506,-10.282 -15.27,-15.88c0.383,0.187 0.751,0.405 1.1,0.65l0,-0.11l0.17,0.11c0,0 0,-0.55 0.13,-1.45l-0.17,-0.06c0.36,-3.68 1.5,-13 3.76,-14.08c2.83,-1.42 23.74,-42.87 23.74,-42.87l20.9,-53.85c0,0 16.65,28.7 30.82,33.65l0,12c0,0 7.79,35.43 10.63,39.32c2.84,3.89 0,19.48 0,19.48c0.56,0.641 1.202,1.206 1.91,1.68l-2.27,12.84c0,0 16.3,-0.71 43.93,7.79c-0.02,0.05 10.61,-4.55 1.75,-10.22Zm-65.18,-185.28l-3.45,0.86l-0.68,0.17c-0.07,-0.43 -0.12,-0.68 -0.12,-0.68c-0.792,0.357 -1.643,0.564 -2.51,0.61c-1.223,-3.874 -1.929,-7.892 -2.1,-11.95c-1.161,-4.857 -1.867,-9.812 -2.11,-14.8c0,-2.58 0.43,-4.83 1.4,-6.1l1.15,0.09l0.8,0.76l0.06,0.05l0.41,0.37l0.43,0.38l0.07,0.06l0.46,0.41l0.08,0.07l0.47,0.4l0.53,0.44l0.12,0.1l0.56,0.45l0.55,0.44l0.13,0.1l0.61,0.46l0.13,0.09l0.58,0.43l0.1,0.07l0.66,0.47l0.16,0.11l0.7,0.48l0.06,0l0.68,0.45l0.16,0.11l0.73,0.47l0.16,0.1l0.68,0.42l0.13,0.08l0.78,0.46l0.19,0.11l0.81,0.45l0.06,0l0.79,0.42l0.19,0.1l0.84,0.42l0.17,0.08l0.78,0.36l0.15,0.07l0.88,0.38l0.21,0.09l0.91,0.37c-5.65,6.22 -8.55,20.72 -8.55,20.72Z" style="fill:url(#_Linear1);fill-rule:nonzero;"/><path d="M726.06,583.09l-6.57,18.33c0,0 18,13.8 29.7,10.94c1.763,-0.439 3.559,-0.73 5.37,-0.87c2.42,-0.18 6.59,-1.95 4,-4.19c-8.3,-7.26 -19.37,-20.75 -19.37,-20.75l-13.13,-3.46Z" style="fill:#4f4d59;fill-rule:nonzero;"/><path d="M835.35,581.36l-3.11,17.64c0,0 15.91,-0.69 42.89,7.61c0,0 10.38,-4.5 1.73,-10c0,0 -10,0.69 -16.25,-10c-6.25,-10.69 -10,-9.34 -10,-9.34l-15.26,4.09Z" style="fill:#4f4d59;fill-rule:nonzero;"/><path d="M753.01,453.4l3,53.68c0.329,5.718 -1.568,11.347 -5.29,15.7c-1.682,1.999 -3.6,3.789 -5.71,5.33c-7.26,5.19 -22.83,59.83 -22.83,59.83c0,0 17.64,1 22.48,4.5c0,0 1,-13.83 3.8,-15.22c2.8,-1.39 23.17,-41.85 23.17,-41.85l20.41,-52.57c0,0 16.25,28 30.09,32.86l0,11.76c0,0 7.61,34.59 10.38,38.39c2.77,3.8 0,19 0,19c0,0 8,10 26.28,-0.69c0,0 -5.88,-6.57 -5.53,-14.53c0.35,-7.96 -8,-51.53 -8,-51.53c0,0 1,-16.6 -7.26,-27c-8.26,-10.4 -21.99,-50.13 -21.99,-50.13l-9.52,-20.48l-53.48,32.95Z" style="fill:#5e5a6b;fill-rule:nonzero;"/><g><g opacity="0.1"><path d="M725.54,587.93c0,0 15.56,-54.64 22.83,-59.83c2.23,-1.634 4.246,-3.543 6,-5.68c3.548,-4.294 5.336,-9.78 5,-15.34l-3.05,-53.69l51,-31.44l-0.69,-1.49l-53.42,32.94l3.05,53.69c0.336,5.56 -1.452,11.046 -5,15.34c-1.754,2.137 -3.77,4.046 -6,5.68c-7.25,5.18 -22.83,59.82 -22.83,59.82c0,0 17.64,1 22.48,4.5c0,0 0,-0.54 0.13,-1.41c-6.81,-2.34 -19.5,-3.09 -19.5,-3.09Z" style="fill:#565171;fill-rule:nonzero;"/><path d="M835.87,584.82c0,0 2.77,-15.22 0,-19c-2.77,-3.78 -10.38,-38.39 -10.38,-38.39l0,-11.78c-13.83,-4.84 -30.09,-32.86 -30.09,-32.86l-1.2,3.14c4.69,7.44 17.2,25.9 28.19,29.74l0,11.76c0,0 7.61,34.59 10.38,38.39c2.77,3.8 0,19 0,19c0,0 3.86,4.86 12.38,4.2c-6.37,-0.53 -9.28,-4.2 -9.28,-4.2Z" style="fill-rule:nonzero;"/></g></g><path d="M872.01,393.22l-6.79,0.45l-3.58,0.24l0,-8.65l4.7,-0.85l2.91,-0.53c0,0 9,-26.63 17.64,-21.79c8.64,4.84 -14.88,31.13 -14.88,31.13Z" style="fill:#714b4f;fill-rule:nonzero;"/><path d="M763.07,321.93c0,0 -4.5,17.29 -5.88,28c-1.38,10.71 32.16,2.08 32.16,2.08c0,0 -12.8,-15.56 -5.53,-23.86l-20.75,-6.22Z" style="fill:#714b4f;fill-rule:nonzero;"/><path d="M799.38,393.93l0.69,6.57l-10.72,-0.69l-10.72,-9.34l-10.72,-30.1l-6.9,-10.73l-5.19,-6.57l2.08,-8c0,0 0.95,0.83 2.55,2.05c5.27,4 17.62,12.41 26.65,10.09c0.417,-0.105 0.828,-0.236 1.23,-0.39l13.49,23.17l-2.44,23.94Z" style="fill:#e6e6f0;fill-rule:nonzero;"/><path d="M760.65,333.04c0,0 -5.53,1 -9.34,9.34c-2.92,6.38 -12.8,13 -17.21,15.67c-1.699,1.037 -2.908,2.719 -3.35,4.66c-0.89,3.94 -1.23,11.29 3.61,21.86c7.61,16.6 13.14,23.86 13.14,23.86c0,0 1.38,16.6 -0.69,21.44c-2.07,4.84 0,31.47 0,31.47c0,0 36.31,6.92 48.42,0c12.11,-6.92 10.38,-33.55 10.38,-33.55c0,0 11.41,24.21 15.56,24.9l-2.42,-13.49c0,0 -13.49,-14.53 -14.18,-33.2c0,0 -4.15,-16.95 -0.69,-21.44c0,0 58.45,4.84 61.91,0.69c0,0 -38.39,-1.73 -44.27,-11.07c0,0 -16.95,-13.49 -17.64,-22.48c-0.204,-3.428 -2.17,-6.515 -5.19,-8.15c-2.352,-1.338 -5.052,-1.941 -7.75,-1.73l-7.81,0.54c0,0 13.49,23.86 12.8,27c-0.69,3.14 0.69,28.36 0.69,28.36c0,0 -15.61,-33.55 -22.48,-37.35c-6.87,-3.8 -14.88,-19.44 -14.88,-19.44l1.38,-7.9" style="fill-opacity:0.1;fill-rule:nonzero;"/><path d="M799.38,393.93l0.69,6.57l-10.72,-0.69l-10.72,-9.34l-10.72,-30.1l-6.9,-10.73l-5.19,-6.57l2.08,-8c0,0 0.95,0.83 2.55,2.05l-0.48,2.73c0,0 8,15.62 14.87,19.43c6.87,3.81 22.48,37.35 22.48,37.35c0,0 -1.38,-25.25 -0.69,-28.36c0.47,-2.11 -5.59,-13.77 -9.53,-21.06c0.417,-0.105 0.828,-0.236 1.23,-0.39l13.49,23.17l-2.44,23.94Z" style="fill-opacity:0.1;fill-rule:nonzero;"/><path d="M865.22,393.67l-3.58,0.24l0,-8.65l4.7,-0.85c-1.64,2.17 -1.58,6.01 -1.12,9.26Z" style="fill-opacity:0.1;fill-rule:nonzero;"/><path d="M760.65,332.01c0,0 -5.53,1 -9.34,9.34c-2.92,6.38 -12.8,13 -17.21,15.67c-1.699,1.037 -2.908,2.719 -3.35,4.66c-0.89,3.94 -1.23,11.29 3.61,21.86c7.61,16.6 13.14,23.86 13.14,23.86c0,0 1.38,16.6 -0.69,21.44c-2.07,4.84 0,31.47 0,31.47c0,0 36.31,6.92 48.42,0c12.11,-6.92 10.38,-33.55 10.38,-33.55c0,0 11.4,24.17 15.56,24.91l-2.42,-13.49c0,0 -13.49,-14.53 -14.18,-33.2c0,0 -4.15,-16.95 -0.69,-21.44c0,0 13.49,14.53 28.71,14.18c11.091,-0.067 22.176,0.511 33.2,1.73c11.024,1.219 -3.46,-11.07 0,-15.22c0,0 -38.39,-1.73 -44.27,-11.07c0,0 -16.95,-13.49 -17.64,-22.48c-0.204,-3.428 -2.17,-6.515 -5.19,-8.15c-2.352,-1.338 -5.052,-1.941 -7.75,-1.73l-7.81,0.54c0,0 13.49,23.86 12.8,27c-0.69,3.14 0.69,28.36 0.69,28.36c0,0 -15.61,-33.57 -22.48,-37.37c-6.87,-3.8 -14.88,-19.4 -14.88,-19.4l1.38,-7.9" style="fill:#575a94;fill-rule:nonzero;"/><path d="M753.01,368.32c0,0 8.3,28 13.14,31.47c4.84,3.47 34.24,21.1 42.89,16.95c0,0 2.08,10.38 -1,12.8c0,0 -32.25,-1.26 -32.51,-1.38c0,0 -21.1,-2.77 -24.56,-13.14c-3.46,-10.37 -7.61,-28 -7.61,-28l9.65,-18.7Z" style="fill-opacity:0.1;fill-rule:nonzero;"/><ellipse cx="797.31" cy="398.24" rx="1.21" ry="1.73" style="fill:#423a6c;"/><ellipse cx="800.76" cy="410.34" rx="1.21" ry="1.73" style="fill:#423a6c;"/><g><g opacity="0.1"><path d="M749.24,459.93c0,0 -2.08,-26.63 0,-31.47c2.08,-4.84 0.69,-21.44 0.69,-21.44c0,0 -5.53,-7.26 -13.14,-23.86c-4.85,-10.57 -4.5,-17.92 -3.61,-21.86c0.442,-1.941 1.651,-3.623 3.35,-4.66c4.41,-2.7 14.28,-9.29 17.21,-15.67c2.15,-4.68 4.84,-7.05 6.78,-8.23l0.13,-0.76c0,0 -5.53,1 -9.34,9.34c-2.92,6.38 -12.8,13 -17.21,15.67c-1.699,1.037 -2.908,2.719 -3.35,4.66c-0.89,3.94 -1.23,11.29 3.61,21.86c7.61,16.6 13.14,23.86 13.14,23.86c0,0 1.38,16.6 -0.69,21.44c-2.07,4.84 0,31.47 0,31.47c0,0 25.94,4.94 41.28,2.29c-15.49,1.85 -38.85,-2.64 -38.85,-2.64Z" style="fill-rule:nonzero;"/><path d="M795.92,368.32c-0.47,2.13 0,14.66 0.39,22.34c1.67,3.41 2.72,5.68 2.72,5.68c0,0 -1.38,-25.25 -0.69,-28.36c0.66,-3 -11.49,-24.66 -12.7,-26.8l-2.52,0.17c0,0 13.5,23.86 12.8,26.97Z" style="fill-rule:nonzero;"/><path d="M835.01,397.37c-15.22,0.35 -28.71,-14.18 -28.71,-14.18c-0.404,0.563 -0.7,1.198 -0.87,1.87c4,3.72 15,12.93 27.16,12.65c11.091,-0.067 22.176,0.511 33.2,1.73c11.024,1.219 -0.07,-0.23 -0.18,-0.62c-10.165,-1.051 -20.381,-1.535 -30.6,-1.45Z" style="fill-rule:nonzero;"/><path d="M808.01,426.42c0,0 0.14,2.16 0.06,5.4c3.6,7.14 10.15,19.35 13.08,19.84l-0.51,-2.84c-5.03,-6.32 -12.63,-22.4 -12.63,-22.4Z" style="fill-rule:nonzero;"/></g></g><path d="M817.71,422.93l-7.35,1.55l-5.8,1.22l3.11,-8.65l2.17,-0.54l3.37,-0.84c0,0 4.84,-24.21 14.53,-22.48c9.69,1.73 -10.03,29.74 -10.03,29.74Z" style="fill:#714b4f;fill-rule:nonzero;"/><path d="M810.37,424.51l-5.8,1.22l3.11,-8.65l2.17,-0.54c0.481,2.628 0.655,5.302 0.52,7.97Z" style="fill-opacity:0.1;fill-rule:nonzero;"/><path d="M753.01,367.63c0,0 8.3,28 13.14,31.47c4.84,3.47 34.24,21.1 42.89,16.95c0,0 2.08,10.38 -1,12.8c0,0 -32.25,-1.26 -32.51,-1.38c0,0 -21.1,-2.77 -24.56,-13.14c-3.46,-10.37 -7.61,-28 -7.61,-28l9.65,-18.7Z" style="fill:#575a94;fill-rule:nonzero;"/><path d="M763.41,322.67c0,0 -0.7,2.71 -1.64,6.65c3.924,7.435 12.408,11.346 20.61,9.5c-0.83,-3.55 -0.65,-7.14 1.78,-9.92l-20.75,-6.23Z" style="fill-opacity:0.1;fill-rule:nonzero;"/><circle cx="777.94" cy="319.9" r="18.68" style="fill:#714b4f;"/><path d="M794.16,314.76c1.353,0.378 2.771,0.466 4.16,0.26c2.948,-0.798 5.023,-3.476 5.06,-6.53c-0.053,-3.018 -1.47,-5.854 -3.85,-7.71c-1.58,-1.32 -3.47,-2.25 -4.92,-3.72c-1.71,-1.75 -2.65,-4.09 -4,-6.15c-2.223,-3.406 -5.522,-5.972 -9.37,-7.29c-2.86,-1 -6.37,-1.08 -8.57,1c-1.13,1.07 -1.79,2.6 -3.05,3.51c-1.83,1.3 -4.31,0.92 -6.54,1.18c-4.099,0.623 -7.628,3.251 -9.4,7c-1.706,3.767 -2.032,8.017 -0.92,12c0.43,1.7 1.07,3.34 1.53,5c1,3.52 1.2,7.21 2.32,10.68c1.12,3.47 3.43,6.87 6.93,7.91c-0.276,-3.894 0.494,-7.793 2.23,-11.29c0.286,-0.765 0.851,-1.394 1.58,-1.76c0.623,-0.16 1.277,-0.16 1.9,0c4.385,0.649 8.862,-0.257 12.65,-2.56c1.33,-0.8 3.4,-3.56 4.81,-3.83c1.82,-0.31 5.55,1.88 7.45,2.3Z" style="fill-opacity:0.1;fill-rule:nonzero;"/><path d="M794.16,314.07c1.353,0.378 2.771,0.466 4.16,0.26c2.948,-0.798 5.023,-3.476 5.06,-6.53c-0.053,-3.018 -1.47,-5.854 -3.85,-7.71c-1.58,-1.32 -3.47,-2.25 -4.92,-3.72c-1.71,-1.75 -2.65,-4.09 -4,-6.15c-2.223,-3.406 -5.522,-5.972 -9.37,-7.29c-2.86,-1 -6.37,-1.08 -8.57,1c-1.13,1.07 -1.79,2.6 -3.05,3.51c-1.83,1.3 -4.31,0.92 -6.54,1.18c-4.099,0.623 -7.628,3.251 -9.4,7c-1.706,3.767 -2.032,8.017 -0.92,12c0.43,1.7 1.07,3.34 1.53,5c1,3.52 1.2,7.21 2.32,10.68c1.12,3.47 3.43,6.87 6.93,7.91c-0.268,-3.893 0.509,-7.788 2.25,-11.28c0.286,-0.765 0.851,-1.394 1.58,-1.76c0.623,-0.16 1.277,-0.16 1.9,0c4.385,0.649 8.862,-0.257 12.65,-2.56c1.33,-0.8 3.4,-3.56 4.81,-3.83c1.8,-0.32 5.53,1.87 7.43,2.29Z" style="fill:#503f43;fill-rule:nonzero;"/><path d="M980.51,252.42l-15.24,170.7l-68.5,19l-68.31,-19l-15.22,-170.7l167.27,0Z" style="fill:#e44d26;fill-rule:nonzero;"/><path d="M896.87,427.6l55.35,-15.34l13,-145.88l-68.35,0l0,161.22Z" style="fill:#f16529;fill-rule:nonzero;"/><path d="M867.25,308.26l29.62,0l0,-20.94l-52.5,0l0.5,5.62l5.15,57.7l46.86,0l0,-20.94l-27.71,0l-1.92,-21.44Zm4.76,52.85l-21,0l2.93,32.88l42.84,11.94l0.1,0l0,-21.85l-0.09,0l-23.32,-6.3l-1.46,-16.67Z" style="fill:#ebebeb;fill-rule:nonzero;"/><path d="M896.8,350.64l25.78,0l-2.43,27.16l-23.35,6.3l0,21.83l42.93,-11.9l0.31,-3.54l4.92,-55.13l0.51,-5.62l-48.67,0l0,20.94l0,-0.04Zm0,-42.43l0,0.05l50.58,0l0.42,-4.71l1,-10.62l0.5,-5.62l-52.5,0l0,20.9Z" style="fill:#fff;fill-rule:nonzero;"/><path d="M366.73,378.44c-1.95,-5.71 -4.76,-13 -7,-14.66c-0.135,-0.108 -0.283,-0.199 -0.44,-0.27l-0.28,0l0,-7.05l-5.26,0.84c-0.844,-2.548 -1.483,-5.16 -1.91,-7.81c1.034,1.035 2.597,1.347 3.95,0.79c-0.09,-0.14 -0.16,-0.29 -0.24,-0.44l0.24,-0.1c-0.828,-1.461 -1.265,-3.111 -1.27,-4.79c0.044,-1.532 0.289,-3.052 0.73,-4.52c0.94,-3.25 2.53,-6.29 3.42,-9.55c0.569,-2.105 0.838,-4.28 0.8,-6.46c0.027,-3.694 -0.816,-7.342 -2.46,-10.65c-0.408,-0.952 -1.047,-1.788 -1.86,-2.43c-0.74,-0.41 -1.501,-0.78 -2.28,-1.11c-1.304,-0.879 -2.428,-1.999 -3.31,-3.3c-3.735,-4.548 -8.737,-7.886 -14.37,-9.59c-1.467,-0.545 -3.056,-0.669 -4.59,-0.36c-3.53,1 -4.82,5.33 -7.68,7.62c-2.53,2 -6,2.23 -9.16,2.91c-3.244,0.552 -6.23,2.117 -8.53,4.47c-1.495,1.709 -2.31,3.91 -2.29,6.18c-0.175,2.153 0.785,4.247 2.53,5.52c1.978,1.301 4.438,1.65 6.7,0.95c-0.596,2.06 -0.899,4.193 -0.899,6.338c0,10.757 7.617,20.121 18.149,22.312l0.62,1.1c1.891,3.527 3.326,7.281 4.27,11.17c-4.84,2.75 -10.13,5.32 -13.32,5.56c-0.127,1.247 -0.357,2.481 -0.69,3.69c-0.745,3.035 -2.179,5.858 -4.19,8.25c-4.34,4.88 -23.87,41.78 -23.87,41.78c0,0 -0.62,1.47 -1.62,4c-12.13,1.49 -31.92,3.64 -37.45,2.53l-21.7,-20.62c0,0 -7,5.35 -6.4,11.85l-3.91,-3.72c0,0 -20.62,15.73 11.94,26l49.54,5.75c-4.72,14.24 -9.12,30.81 -7.76,39.83l0.41,0c0.948,-0.002 1.894,-0.075 2.83,-0.22l-0.09,1.6l-4.77,85.43c0,0 -1.09,15.73 13.56,22.79c0,0 17.91,52.63 10.85,58.6c0,0 0.84,0.44 2.25,1.06l-14.73,13c0,0 -10.85,2.71 -16.82,2.17c-2.162,-0.295 -4.223,1.096 -4.76,3.21c0,0.11 0,0.22 -0.06,0.34l0,0.49c0,0.12 0,0.09 0,0.13l0,0.43c0,0.12 0,0.23 0.07,0.35l0,0.13c0.033,0.127 0.073,0.25 0.12,0.37l0,0.12c0.05,0.12 0.11,0.24 0.17,0.36l0,0.08c0.07,0.12 0.14,0.24 0.22,0.36l0.07,0.1c0.087,0.127 0.183,0.253 0.29,0.38l0.08,0.1c0.11,0.13 0.23,0.25 0.36,0.38l0.06,0l0.4,0.34l0.09,0.07l0.49,0.35l0.12,0.08l0.57,0.33l0.09,0l0.61,0.3l0.09,0l0.71,0.29l0.15,0.06l0.79,0.26l0.13,0l0.85,0.22l0.07,0l1,0.19l0.19,0l1,0.15l0.19,0l1.15,0.11c2.23,0.17 5.24,0.23 8.72,0.22c3.48,-0.01 0,0.09 0,0.13l0,0.43c0,0.12 0,0.23 0.07,0.35l0,0.13c0.033,0.127 0.073,0.25 0.12,0.37l0,0.12c0.05,0.12 0.11,0.24 0.17,0.36l0,0.08c0.07,0.12 0.14,0.24 0.22,0.36l0.07,0.1c0.087,0.127 0.183,0.253 0.29,0.38l0.08,0.1c0.11,0.13 0.23,0.25 0.36,0.38l0.05,0l0.4,0.34l0.09,0.07l0.49,0.35l0.12,0.08l0.56,0.33l0.09,0l0.61,0.3l0.09,0l0.71,0.29l0.15,0.06l0.79,0.26l0.13,0l0.85,0.22l0.07,0l1,0.19l0.19,0l1,0.15l0.19,0l1.15,0.11c14.11,1.09 59.14,-2.17 59.14,-2.17l0,-0.13l0,-0.16c0.45,-2.1 2.61,-14.31 -5.07,-23.34c0.23,-0.24 0.45,-0.49 0.66,-0.75c0,0 -6,-10.31 -2.71,-13.56c3.29,-3.25 -15.89,-59.18 -15.89,-59.18c0,0 -10.31,-16.28 -4.34,-34.73c5.97,-18.45 -0.54,-38.52 -0.54,-38.52c0,0 14.25,-4.22 14.51,-21.75c0,-0.53 0,-1.08 0,-1.63c0.298,0.043 0.599,0.064 0.9,0.06c0.2,0.014 0.4,0.014 0.6,0c0.2,-0.014 -2.71,-9.77 0.54,-16.82c3.25,-7.05 10.31,-0.54 16.82,-29.3c4.71,-20.81 8.85,-44.74 10.79,-56.39c0.797,-4.828 0.388,-9.778 -1.19,-14.41Zm-123.82,61l-4.95,-4.7c1.64,0.68 3.46,1.34 5.49,2l18.65,2.19c-8.32,0.75 -16.09,1.17 -19.19,0.54l0,-0.03Z" style="fill:url(#_Linear2);fill-rule:nonzero;"/><path d="M290.14,436.7c0,0 -38.38,5.33 -46.38,3.73l-21.32,-20.26c0,0 -20.26,15.46 11.73,25.59l59.7,6.93l-3.73,-15.99Z" style="fill:#fdc2cc;fill-rule:nonzero;"/><path d="M290.14,436.7c0,0 -38.38,5.33 -46.38,3.73l-21.32,-20.26c0,0 -20.26,15.46 11.73,25.59l59.7,6.93l-3.73,-15.99Z" style="fill-opacity:0.05;fill-rule:nonzero;"/><path d="M215.01,450.15l-82.94,-23l-18.48,-207.3l203.09,0l-18.5,207.27l-83.17,23.03Z" style="fill:#264de4;fill-rule:nonzero;"/><path d="M282.34,413.93l15.81,-177.12l-83,0l0,195.71l67.19,-18.59Z" style="fill:#2965f1;fill-rule:nonzero;"/><path d="M156.01,313.66l2.28,25.42l56.9,0l0,-25.42l-59.18,0Zm-4.58,-51.46l2.31,25.42l61.44,0l0,-25.42l-63.8,0l0.05,0Zm63.75,117.49l-0.11,0l-28.32,-7.65l-1.81,-20.28l-25.57,0l3.56,39.92l52.08,14.49l0.12,0l0.05,-26.48Z" style="fill:#ebebeb;fill-rule:nonzero;"/><path d="M274.15,313.66l4.59,-51.46l-63.73,0l0,25.42l35.83,0l-2.31,26l-33.52,0l0,25.42l31.31,0l-3,33l-28.31,7.67l0,26.45l52.12,-14.45l0.38,-4.3l6,-66.94l0.62,-6.83l0.02,0.02Z" style="fill:#fff;fill-rule:nonzero;"/><path d="M304.01,653.12l-18.66,16.52c0,0 -10.66,2.67 -16.52,2.13c-5.86,-0.54 -8.53,9.06 5.33,10.13c13.86,1.07 58.1,-2.13 58.1,-2.13c0,0 4.26,-17.06 -8.53,-26.65l-19.72,0Z" style="fill:#47465a;fill-rule:nonzero;"/><path d="M304.01,653.12l-18.66,16.52c0,0 -10.66,2.67 -16.52,2.13c-5.86,-0.54 -8.53,9.06 5.33,10.13c13.86,1.07 58.1,-2.13 58.1,-2.13c0,0 4.26,-17.06 -8.53,-26.65l-19.72,0Z" style="fill-opacity:0.05;fill-rule:nonzero;"/><path d="M332.92,672.4c-0.032,1.944 -0.256,3.88 -0.67,5.78c-0.414,1.9 -44.24,3.2 -58.1,2.13c-6.67,-0.51 -9.5,-3 -10,-5.38c-0.61,2.74 1.81,6.35 10,7c13.86,1.07 58.1,-2.13 58.1,-2.13c0.521,-2.431 0.746,-4.915 0.67,-7.4Z" style="fill:#fff;fill-opacity:0.3;fill-rule:nonzero;"/><path d="M325.85,350.93c0,0 11.73,16.52 7.46,27.72c-4.27,11.2 22.39,-11.73 22.39,-11.73c0,0 -8.53,-14.99 -4.26,-30.99l-25.59,15Z" style="fill:#fdc2cc;fill-rule:nonzero;"/><path d="M322.65,659.52l-18.64,16.52c0,0 -10.66,2.67 -16.52,2.13c-5.86,-0.54 -8.53,9.06 5.33,10.13c13.86,1.07 58.1,-2.13 58.1,-2.13c0,0 4.26,-17.06 -8.53,-26.65l-19.74,0Z" style="fill:#47465a;fill-rule:nonzero;"/><path d="M328.01,655.79c-2.78,3.43 -6.7,4.75 -10.8,4.95c-9.32,0.44 -19.58,-4.95 -19.58,-4.95c6.93,-5.86 -10.66,-57.57 -10.66,-57.57c-14.39,-6.93 -13.33,-22.39 -13.33,-22.39l4.66,-83.9l1.18,-21.08l14.93,-9.06l11.76,9l11.16,8.56c0.727,2.723 1.196,5.509 1.4,8.32c1.3,19.59 -14.19,24.2 -14.19,24.2c0,0 6.4,19.72 0.53,37.85c-5.87,18.13 4.26,34.12 4.26,34.12c0,0 19.19,55.44 16,58.64c-3.19,3.2 2.68,13.31 2.68,13.31Z" style="fill:#5e5a6b;fill-rule:nonzero;"/><path d="M346.64,662.18c-9.06,11.19 -30.38,0 -30.38,0c0.429,-0.395 0.75,-0.895 0.93,-1.45c3.91,-10.63 -13.19,-61.45 -13.19,-61.45c-14.39,-6.93 -16,-23.45 -16,-23.45l-3.77,-85.42l-0.49,-11.06l22.43,-8.56l6.89,-2.63l22.95,17.59c0.985,3.644 1.47,7.405 1.44,11.18c-0.29,17.21 -14.26,21.37 -14.26,21.37c0,0 6.4,19.72 0.53,37.85c-5.87,18.13 4.29,34.07 4.29,34.07c0,0 19.19,55.44 16,58.64c-3.19,3.2 2.63,13.32 2.63,13.32Z" style="fill:#5e5a6b;fill-rule:nonzero;"/><path d="M337.45,496.93c-4.61,-0.66 -13.94,-6.21 -18.73,-9.22c-1.83,-1.15 -3,-1.92 -3,-1.92c0,0 -4.8,-13.33 -17.59,-3.2c-4.161,3.379 -8.859,6.036 -13.9,7.86c-1.925,0.682 -3.911,1.181 -5.93,1.49l1.18,-21.08l14.93,-9.06l11.76,9l6.89,-2.63l22.95,17.58c0.985,3.644 1.47,7.405 1.44,11.18Z" style="fill-opacity:0.1;fill-rule:nonzero;"/><path d="M366.3,394.64c-1.9,11.44 -6,35 -10.6,55.39c-6.4,28.25 -13.33,21.85 -16.52,28.78c-3.19,6.93 -0.53,16.52 -0.53,16.52c-5.33,0.53 -22.92,-11.19 -22.92,-11.19c0,0 -4.8,-13.33 -17.59,-3.2c-12.79,10.13 -22.92,9.59 -22.92,9.59c-2.67,-17.59 17.06,-64.5 17.06,-64.5c0,0 19.19,-36.25 23.45,-41c1.977,-2.348 3.386,-5.12 4.12,-8.1c0.327,-1.186 0.555,-2.396 0.68,-3.62c6.93,-0.53 24,-12.26 24,-12.26l13.33,-2.13l0,6.93c0.158,0.071 0.306,0.161 0.44,0.27c2.19,1.67 5,8.79 6.87,14.4c1.531,4.542 1.919,9.392 1.13,14.12Z" style="fill:#575a89;fill-rule:nonzero;"/><path d="M304.01,444.7l-6.89,-0.8l-52.81,-6.13c-32,-10.13 -11.73,-25.59 -11.73,-25.59l21.32,20.26c6.15,1.23 30.28,-1.64 41.09,-3c3.24,-0.42 5.29,-0.7 5.29,-0.7l3.73,15.96Z" style="fill:#fdc2cc;fill-rule:nonzero;"/><path d="M355.7,372.74c0,0 -13.86,-11.19 -34.69,25.05c-20.83,36.24 -25.59,30.38 -25.59,30.38c0,0 4.26,16 2.13,19.19c0,0 14.39,-1.07 19.72,0c5.33,1.07 38.38,-40.51 38.38,-40.51c0,0 17.11,-23.45 0.05,-34.11Z" style="fill-opacity:0.1;fill-rule:nonzero;"/><path d="M355.17,370.61c0,0 -13.86,-11.19 -34.65,25.05c-20.79,36.24 -25.59,30.38 -25.59,30.38c0,0 16.52,18.12 21.85,19.19c5.33,1.07 38.38,-40.51 38.38,-40.51c0,0 17.07,-23.45 0.01,-34.11Z" style="fill-opacity:0.1;fill-rule:nonzero;"/><path d="M297.11,443.93c0.22,-3.95 -1.27,-10.89 -2.13,-14.49c3.24,-0.42 5.29,-0.7 5.29,-0.7l3.73,16l-6.89,-0.81Z" style="fill-opacity:0.1;fill-rule:nonzero;"/><path d="M355.7,371.67c0,0 -13.86,-11.19 -34.69,25.06c-20.83,36.25 -25.59,30.38 -25.59,30.38c0,0 4.26,16 2.13,19.19c0,0 14.39,-1.07 19.72,0c5.33,1.07 38.38,-40.51 38.38,-40.51c0,0 17.11,-23.46 0.05,-34.12Z" style="fill:#575a89;fill-rule:nonzero;"/><path d="M352.01,337.02l-25.63,14.91c1.085,1.573 2.086,3.202 3,4.88c1.475,0.299 2.975,0.45 4.48,0.45c6.83,0 10,-7.17 14.13,-12c-0.3,-3.84 2.84,-3.94 4.02,-8.24Z" style="fill-opacity:0.1;fill-rule:nonzero;"/><circle cx="333.31" cy="333.83" r="22.39" style="fill:#fdc2cc;"/><path d="M305.01,315.72c2.258,-2.315 5.192,-3.856 8.38,-4.4c3.11,-0.67 6.52,-0.87 9,-2.86c2.81,-2.25 4.07,-6.53 7.54,-7.49c1.507,-0.302 3.069,-0.177 4.51,0.36c5.535,1.673 10.45,4.952 14.12,9.42c0.868,1.282 1.975,2.385 3.26,3.25c0.765,0.324 1.513,0.687 2.24,1.09c0.796,0.633 1.422,1.454 1.82,2.39c2.498,5.045 3.074,10.831 1.62,16.27c-0.87,3.21 -2.43,6.19 -3.36,9.39c-0.93,3.2 -1.16,6.82 0.53,9.68c-1.64,0.84 -3.71,-0.22 -4.74,-1.75c-1.03,-1.53 -1.34,-3.41 -1.88,-5.18c-1.062,-3.474 -3.062,-6.589 -5.78,-9c-1.68,-1.48 -4.68,-2.48 -5.85,-0.57c-0.45,0.74 -0.42,1.69 -0.81,2.46c-0.76,1.51 -3,1.81 -4.43,1c-1.408,-0.972 -2.398,-2.44 -2.77,-4.11c-2.19,-7.43 -5.94,-12.1 -13.88,-8.93c-3,1.18 -6.45,2 -9.3,0c-3.65,-2.68 -2.92,-7.99 -0.22,-11.02Z" style="fill-opacity:0.1;fill-rule:nonzero;"/><path d="M305.01,315.18c2.258,-2.315 5.192,-3.856 8.38,-4.4c3.11,-0.67 6.52,-0.87 9,-2.86c2.81,-2.25 4.07,-6.53 7.54,-7.49c1.507,-0.302 3.069,-0.177 4.51,0.36c5.535,1.673 10.45,4.952 14.12,9.42c0.868,1.282 1.975,2.385 3.26,3.25c0.765,0.324 1.513,0.687 2.24,1.09c0.796,0.633 1.422,1.454 1.82,2.39c2.498,5.045 3.074,10.831 1.62,16.27c-0.87,3.21 -2.43,6.19 -3.36,9.39c-0.93,3.2 -1.16,6.82 0.53,9.68c-1.64,0.84 -3.71,-0.22 -4.74,-1.75c-1.03,-1.53 -1.34,-3.41 -1.88,-5.18c-1.062,-3.474 -3.062,-6.589 -5.78,-9c-1.68,-1.48 -4.68,-2.48 -5.85,-0.57c-0.45,0.74 -0.42,1.69 -0.81,2.46c-0.76,1.51 -3,1.81 -4.43,1c-1.408,-0.972 -2.398,-2.44 -2.77,-4.11c-2.19,-7.43 -5.94,-12.1 -13.88,-8.93c-3,1.18 -6.45,2 -9.3,0c-3.65,-2.67 -2.92,-7.98 -0.22,-11.02Z" style="fill:#8f5a6a;fill-rule:nonzero;"/><path d="M358.27,366.08l-10.83,0c0,0 -21.32,10.66 -21.85,10.13c-0.36,-0.36 -3.66,0.26 -5.75,0.69c0.327,-1.186 0.555,-2.396 0.68,-3.62c6.93,-0.53 24,-12.26 24,-12.26l13.33,-2.13l0,6.93c0.15,0.069 0.291,0.156 0.42,0.26Z" style="fill-opacity:0.05;fill-rule:nonzero;"/><path d="M351.57,678.79c-0.032,1.944 -0.256,3.88 -0.67,5.78c-0.414,1.9 -44.24,3.2 -58.1,2.13c-6.67,-0.51 -9.5,-3 -10,-5.38c-0.61,2.74 1.81,6.35 10,7c13.86,1.07 58.1,-2.13 58.1,-2.13c0.521,-2.431 0.746,-4.915 0.67,-7.4Z" style="fill:#fff;fill-opacity:0.3;fill-rule:nonzero;"/><g><g opacity="0.05"><path d="M293.07,480.41c-7.19,5.7 -13.55,8 -17.73,9c0,0.4 0.08,0.79 0.14,1.17c0,0 10.13,0.53 22.92,-9.59c1.982,-1.698 4.324,-2.922 6.85,-3.58c-2.79,-1.37 -6.77,-1.28 -12.18,3Z" style="fill-rule:nonzero;"/><path d="M365.41,380.47c-1.91,-5.61 -4.68,-12.72 -6.87,-14.4c-0.134,-0.109 -0.282,-0.199 -0.44,-0.27c-0.158,-0.071 -4.41,0.15 -4.26,0.27c2.19,1.67 4.33,8.26 6.24,13.86c1.548,4.552 1.946,9.417 1.16,14.16c-1.9,11.44 -6,35 -10.6,55.39c-6.4,28.25 -13.33,21.85 -16.52,28.78c-2.62,5.68 -1.31,13.14 -0.74,15.65c1.724,0.863 3.614,1.344 5.54,1.41c1.926,0.066 -2.67,-9.59 0.53,-16.52c3.2,-6.93 10.13,-0.53 16.52,-28.78c4.63,-20.44 8.7,-44 10.6,-55.39c0.786,-4.743 0.388,-9.608 -1.16,-14.16Z" style="fill-rule:nonzero;"/></g></g><path d="M427.36,480.04c1.833,-1.494 3.168,-3.51 3.83,-5.78c0.5,-2.3 -0.48,-5.05 -2.68,-5.89c-2.46,-0.94 -5.09,0.76 -7.08,2.49c-1.99,1.73 -4.28,3.69 -6.89,3.32c2.726,-2.471 3.958,-6.202 3.24,-9.81c-0.113,-0.736 -0.424,-1.427 -0.9,-2c-1.37,-1.46 -3.84,-0.83 -5.48,0.32c-5.2,3.66 -6.65,10.72 -6.68,17.08c-0.52,-2.29 -0.08,-4.68 -0.1,-7c-0.02,-2.32 -0.66,-5 -2.64,-6.22c-1.228,-0.66 -2.607,-0.987 -4,-0.95c-2.34,-0.09 -4.94,0.15 -6.54,1.86c-2,2.12 -1.47,5.69 0.26,8c1.73,2.31 4.35,3.8 6.77,5.42c1.939,1.153 3.594,2.729 4.84,4.61c0.147,0.261 0.267,0.536 0.36,0.82l14.65,0c3.282,-1.673 6.323,-3.782 9.04,-6.27Z" style="fill:#293462;fill-rule:nonzero;"/><path d="M454.27,667.81c2.33,-2.17 4.52,-4.73 5.2,-7.84c0.68,-3.11 -0.65,-6.85 -3.63,-8c-3.33,-1.28 -6.9,1 -9.6,3.37c-2.7,2.37 -5.8,5 -9.33,4.5c3.694,-3.35 5.364,-8.409 4.39,-13.3c-0.155,-0.994 -0.577,-1.927 -1.22,-2.7c-1.85,-2 -5.21,-1.13 -7.42,0.43c-7,5 -9,14.53 -9.05,23.15c-0.71,-3.11 -0.11,-6.35 -0.13,-9.54c-0.02,-3.19 -0.89,-6.72 -3.58,-8.44c-1.675,-0.9 -3.559,-1.342 -5.46,-1.28c-3.17,-0.12 -6.7,0.2 -8.86,2.52c-2.69,2.88 -2,7.71 0.35,10.88c2.35,3.17 5.9,5.16 9.17,7.35c2.625,1.565 4.864,3.701 6.55,6.25c0.2,0.356 0.364,0.731 0.49,1.12l19.87,0c4.45,-2.258 8.574,-5.107 12.26,-8.47Z" style="fill:#293462;fill-rule:nonzero;"/><path d="M69.67,622.758c1.656,-2.719 3.072,-5.777 2.886,-8.954c-0.187,-3.178 -2.479,-6.419 -5.659,-6.72c-3.552,-0.332 -6.373,2.829 -8.331,5.841c-1.958,3.012 -4.231,6.383 -7.764,6.857c2.649,-4.225 2.888,-9.547 0.628,-13.992c-0.418,-0.915 -1.077,-1.699 -1.905,-2.269c-2.322,-1.425 -5.322,0.321 -7.027,2.421c-5.386,6.707 -4.734,16.423 -2.45,24.735c-1.525,-2.802 -1.824,-6.084 -2.706,-9.149c-0.882,-3.066 -2.675,-6.229 -5.73,-7.157c-1.856,-0.414 -3.789,-0.329 -5.602,0.245c-3.085,0.742 -6.396,2.005 -7.848,4.823c-1.811,3.5 0.16,7.963 3.28,10.379c3.12,2.416 7.076,3.372 10.817,4.596c2.95,0.796 5.683,2.247 7.996,4.245c0.289,0.288 0.548,0.605 0.775,0.945l19.129,-5.375c3.673,-3.378 6.872,-7.236 9.511,-11.471Z" style="fill:#293462;fill-rule:nonzero;"/><defs><linearGradient id="_Linear1" x1="0" y1="0" x2="1" y2="0" gradientUnits="userSpaceOnUse" gradientTransform="matrix(2.07302e-14,-338.55,338.55,2.07302e-14,804.14,616.78)"><stop offset="0" style="stop-color:#808080;stop-opacity:0.247059"/><stop offset="0.54" style="stop-color:#808080;stop-opacity:0.117647"/><stop offset="1" style="stop-color:#808080;stop-opacity:0.0980392"/></linearGradient><linearGradient id="_Linear2" x1="0" y1="0" x2="1" y2="0" gradientUnits="userSpaceOnUse" gradientTransform="matrix(2.41996e-14,-395.21,395.21,2.41996e-14,291.54,691.99)"><stop offset="0" style="stop-color:#808080;stop-opacity:0.247059"/><stop offset="0.54" style="stop-color:#808080;stop-opacity:0.117647"/><stop offset="1" style="stop-color:#808080;stop-opacity:0.0980392"/></linearGradient></defs></svg>