<?xml version="1.0" encoding="UTF-8" standalone="no"?><!DOCTYPE svg PUBLIC "-//W3C//DTD SVG 1.1//EN" "http://www.w3.org/Graphics/SVG/1.1/DTD/svg11.dtd"><svg width="100%" height="100%" viewBox="0 0 888 513" version="1.1" xmlns="http://www.w3.org/2000/svg" xmlns:xlink="http://www.w3.org/1999/xlink" xml:space="preserve" xmlns:serif="http://www.serif.com/" style="fill-rule:evenodd;clip-rule:evenodd;stroke-linejoin:round;stroke-miterlimit:1.41421;"><ellipse cx="383.376" cy="496.065" rx="144.416" ry="16.591" style="fill:#e6e6e6;"/><path d="M888,139.791l-285.591,-77.785l-49.817,182.905l285.591,77.785l49.817,-182.905Z" style="fill:#e6e6e6;"/><path d="M872.846,163.211l-269.258,-73.336l-40.621,149.143l269.258,73.336l40.621,-149.143Z" style="fill:#fff;"/><path d="M887.922,139.596l-285.591,-77.785l-4.807,17.65l285.591,77.785l4.807,-17.65Z" style="fill:#f76262;"/><circle cx="613.168" cy="74.242" r="4.424" style="fill:#fff;"/><circle cx="629.369" cy="78.655" r="4.424" style="fill:#fff;"/><circle cx="645.569" cy="83.067" r="4.424" style="fill:#fff;"/><path d="M849.421,186.914l-237.785,-64.764l-4.317,15.852l237.784,64.764l4.318,-15.852Z" style="fill:#e6e6e6;"/><path d="M840.299,221.147l-237.785,-64.763l-4.317,15.852l237.784,64.764l4.318,-15.853Z" style="fill:#e6e6e6;"/><path d="M831.175,255.38l-237.785,-64.764l-4.317,15.852l237.784,64.764l4.318,-15.852Z" style="fill:#e6e6e6;"/><rect x="0.126" y="234.21" width="295.995" height="189.568" style="fill:#e6e6e6;"/><rect x="8.59" y="260.79" width="279.067" height="154.577" style="fill:#fff;"/><rect x="0" y="234.042" width="295.995" height="18.293" style="fill:#f76262;"/><circle cx="13.723" cy="243.189" r="4.424" style="fill:#fff;"/><circle cx="30.514" cy="243.189" r="4.424" style="fill:#fff;"/><circle cx="47.304" cy="243.189" r="4.424" style="fill:#fff;"/><rect x="24.837" y="289.816" width="246.447" height="16.43" style="fill:#e6e6e6;"/><rect x="25.03" y="325.242" width="246.447" height="16.43" style="fill:#e6e6e6;"/><rect x="25.222" y="360.669" width="246.447" height="16.43" style="fill:#e6e6e6;"/><rect x="536.157" y="292.991" width="317.084" height="203.075" style="fill:#e6e6e6;"/><rect x="545.224" y="321.464" width="298.95" height="165.59" style="fill:#fff;"/><rect x="536.022" y="292.811" width="317.084" height="19.597" style="fill:#f76262;"/><circle cx="550.722" cy="302.609" r="4.739" style="fill:#fff;"/><circle cx="568.709" cy="302.609" r="4.739" style="fill:#fff;"/><circle cx="586.696" cy="302.609" r="4.739" style="fill:#fff;"/><rect x="562.628" y="352.558" width="264.006" height="17.6" style="fill:#e6e6e6;"/><rect x="562.834" y="390.509" width="264.006" height="17.6" style="fill:#e6e6e6;"/><rect x="563.041" y="428.46" width="264.006" height="17.6" style="fill:#e6e6e6;"/><path d="M282.155,212.035l-4.368,8.737c0,0 -17.474,30.578 -2.912,30.578c14.561,0 17.473,-26.21 17.473,-26.21l1.456,-8.736l-11.649,-4.369Z" style="fill:#fdb797;fill-rule:nonzero;"/><path d="M439.416,44.581c0,0 1.456,24.754 5.825,29.123c4.368,4.368 -36.403,0 -36.403,0c0,0 1.456,-27.667 0,-29.123c-1.456,-1.456 30.578,0 30.578,0Z" style="fill:#fdb797;fill-rule:nonzero;"/><path d="M425.655,432.309l2.112,36.003l18.93,0l1.456,-21.841l-22.498,-14.162Z" style="fill:#fdb797;fill-rule:nonzero;"/><path d="M430.679,462.488c0,0 -4.368,-16.017 -7.28,-7.281c-2.912,8.737 -7.281,18.93 -7.281,18.93c0,0 -11.649,11.649 2.913,16.017c14.561,4.369 24.754,2.913 24.754,7.281c0,4.368 49.508,14.561 46.595,-1.456c-2.912,-16.018 -23.297,-23.298 -23.297,-23.298c0,0 -12.337,-23.298 -17.09,-21.842c-4.752,1.456 -6.208,7.281 -6.208,7.281l-13.106,4.368Z" style="fill:#333;fill-rule:nonzero;"/><path d="M331.663,420.261l-2.912,26.21l20.386,0l6.692,-25.458l-24.166,-0.752Z" style="fill:#fdb797;fill-rule:nonzero;"/><circle cx="423.399" cy="31.476" r="24.754" style="fill:#fdb797;"/><path d="M372.435,78.072l-11.649,-2.912c0,0 -24.754,30.578 -32.035,43.683c-7.281,13.105 -46.596,78.631 -46.596,82.999c0,4.369 -2.912,13.105 -2.912,13.105l16.017,5.825c0,0 5.825,-8.737 7.281,-8.737c1.456,0 34.947,-30.578 33.491,-34.947c-1.456,-4.368 13.105,-13.105 13.105,-13.105c0,0 4.792,-4.798 5.824,-5.824c1.039,-1.033 20.386,-21.842 20.386,-21.842l-2.912,-58.245Z" style="fill:#f76262;fill-rule:nonzero;"/><path d="M553.753,221.277l4.368,8.737c0,0 17.473,30.578 2.912,30.578c-14.561,0 -17.473,-26.21 -17.473,-26.21l-1.456,-8.737l11.649,-4.368Z" style="fill:#fdb797;fill-rule:nonzero;"/><path d="M463.473,87.314l11.649,-2.912c0,0 24.754,30.578 32.035,43.683c7.28,13.105 46.596,78.631 46.596,82.999c0,4.368 2.912,13.105 2.912,13.105l-16.018,5.825c0,0 -5.824,-8.737 -7.28,-8.737c-1.456,0 -34.947,-30.579 -33.491,-34.947c1.456,-4.368 -13.105,-13.105 -13.105,-13.105c0,0 -5.824,-4.368 -5.824,-5.825c0,-1.456 -20.386,-21.841 -20.386,-21.841l2.912,-58.245Z" style="fill:#f76262;fill-rule:nonzero;"/><path d="M436.155,19.587c0,0 2.989,6.468 -8.966,3.88c0,0 -4.483,2.588 -4.483,-1.293c0,0 -5.978,6.468 -7.473,2.587c-1.494,-3.881 -4.483,1.294 -4.483,1.294l-2.989,-6.468l-2.989,3.88l-10.461,0c0,0 -2.988,-25.872 32.878,-23.285c35.866,2.587 18.222,43.58 18.222,43.58c0,0 -0.289,-7.358 -3.278,-3.477c-2.989,3.881 -5.978,-20.698 -5.978,-20.698Z" style="fill:#333;fill-rule:nonzero;"/><path d="M347.105,439.998c0,0 -2.592,-16.399 3.65,-9.628c6.242,6.771 14.409,14.273 14.409,14.273c0,0 15.404,5.84 3.92,15.801c-11.485,9.96 -21.377,12.817 -19.583,16.8c1.793,3.984 -39.167,33.601 -43.087,17.8c-3.92,-15.801 11.68,-30.808 11.68,-30.808c0,0 1.686,-26.309 6.617,-26.932c4.932,-0.623 8.65,4.09 8.65,4.09l13.744,-1.396Z" style="fill:#333;fill-rule:nonzero;"/><path d="M366.61,204.755c0,0 -14.561,85.911 -14.561,97.56c0,11.649 -5.824,26.21 -5.824,26.21l-26.336,98.649l37.993,3.081l25.672,-83.176l28.196,-84.08l16.017,85.912l-2.912,99.016l29.122,2.912l16.018,-107.753c0,0 10.193,-129.595 -8.737,-132.507c-18.93,-2.912 -94.648,-5.824 -94.648,-5.824Z" style="fill:#333;fill-rule:nonzero;"/><path d="M442,65.126c0,0 -15.07,11.105 -34,-2c0,0 -6,0 -16.636,0.385c-11.082,0.401 -30.578,11.649 -30.578,11.649l-1.786,71.966l11.979,-4.985c0,0 -21.842,52.421 -11.649,59.701c10.192,7.281 4.368,10.193 4.368,10.193c0,0 14.561,-11.649 26.21,-2.912c11.649,8.737 77.174,8.737 77.174,5.824c0.076,-1.586 -0.444,-3.144 -1.456,-4.368c-1.012,-1.224 8.737,-11.649 -4.368,-27.666c0,0 10.193,-13.105 7.281,-20.386l17.473,-61.157c0,0 -4.368,-16.017 -16.017,-20.386c-11.649,-4.368 -27.995,-15.858 -27.995,-15.858Z" style="fill:#f76262;fill-rule:nonzero;"/></svg>